<?xml version="1.0" encoding="UTF-8"?>
<svg width="798px" height="108px" viewBox="0 0 798 108" version="1.1" xmlns="http://www.w3.org/2000/svg" xmlns:xlink="http://www.w3.org/1999/xlink">
    <!-- Generator: Sketch 61.2 (89653) - https://sketch.com -->
    <title>bokadirekt-logo-RGB</title>
    <desc>Created with Sketch.</desc>
    <g id="Page-1" stroke="none" stroke-width="1" fill="none" fill-rule="evenodd">
        <g id="bokadirekt-logo-RGB" fill-rule="nonzero">
            <path d="M368.23,37.3 L368.23,42.3 C362.83644,38.1864774 356.222753,35.9936477 349.44,36.07 C332.15,36.07 319.21,49.14 319.21,66.55 C319.21,83.96 332.15,97.04 349.44,97.04 C356.222753,97.1163523 362.83644,94.9235226 368.23,90.81 L368.23,95.81 L379.68,95.81 L379.68,37.3 L368.23,37.3 Z M349.44,85.86 C338.62,85.86 331.03,77.27 331.03,66.57 C331.03,55.87 338.62,47.29 349.44,47.29 C360.26,47.29 367.86,55.87 367.86,66.57 C367.86,77.27 360.27,85.86 349.44,85.86 Z" id="Shape" fill="#000000"></path>
            <path d="M231.69,36.06 C248.98,36.06 261.92,49.12 261.92,66.54 C261.92,83.96 249,97 231.69,97 C214.38,97 201.46,84 201.46,66.54 C201.46,49.08 214.4,36.06 231.69,36.06 Z M231.69,85.82 C242.51,85.82 250.1,77.24 250.1,66.54 C250.1,55.84 242.51,47.26 231.69,47.26 C220.87,47.26 213.28,55.84 213.28,66.54 C213.28,77.24 220.87,85.82 231.69,85.82 Z" id="Shape" fill="#000000"></path>
            <polygon id="Path" fill="#000000" points="325.78 95.78 310 95.78 281 67.16 281 95.78 269.17 95.78 269.17 7.44 281 7.44 281 59.7 305.38 37.3 322 37.3 292.81 63.68"></polygon>
            <polygon id="Path" fill="#000000" points="455.93 37.3 467.75 37.3 467.75 95.78 455.93 95.78"></polygon>
            <path d="M509.88,47.75 C508.376156,47.3778305 506.828497,47.2129712 505.28,47.26 C499.18,47.26 492.71,51.49 489.48,57.08 L489.48,95.78 L477.66,95.78 L477.66,37.3 L489.1,37.3 L489.1,44 C491.96,40 498.1,36 506.65,36 C508.190599,36.0040819 509.728555,36.1277871 511.25,36.37 L509.88,47.75 Z" id="Path" fill="#000000"></path>
            <path d="M522,69 C522.606848,79.0194388 530.962735,86.8036074 541,86.7 C549.71,86.7 554.44,82.47 557.8,78.7 L565.51,86.04 C561.16,91.64 552.82,97.04 540.88,97.04 C523.83,97.04 510.65,84.1 510.65,66.56 C510.65,49.02 522.59,36.08 539.14,36.08 C555.44,36.08 567.26,49.27 567.26,66.56 C567.26718,67.3918678 567.223767,68.2234025 567.13,69.05 L522,69 Z M523,59 L554.85,59 C553.11,51.54 546.39,46.31 539.42,46.31 C531.680111,46.3294735 524.930401,51.5746805 523,59.07 L523,59 Z" id="Shape" fill="#000000"></path>
            <polygon id="Path" fill="#000000" points="630.42 95.78 614.62 95.78 585.62 67.16 585.62 95.78 573.81 95.78 573.81 7.44 585.63 7.44 585.63 59.7 610 37.3 626.67 37.3 597.45 63.68"></polygon>
            <path d="M644.84,47.88 L663.5,47.88 L663.5,37.3 L644.84,37.3 L644.84,21.13 L632.999985,21.13 L632.999985,79.06 C632.990959,85.9506125 637.159041,92.159235 643.54,94.76 C643.81,94.87 644.09,94.95 644.36,95.05 C647.486099,96.416798 650.868511,97.0987361 654.28,97.05 C657.390169,97.0784766 660.488355,96.6608949 663.48,95.81 L661.12,85.11 C658.998616,85.6026294 656.827832,85.8509108 654.65,85.85 C654.18557,85.8481818 653.721572,85.8214768 653.26,85.77 L653.26,85.77 C652.338641,85.6579306 651.426363,85.4808219 650.53,85.24 C648.99058,84.8154126 647.603421,83.9623096 646.53,82.78 C645.04,81.04 644.79,78.43 644.79,75.32 L644.84,47.88 Z" id="Path" fill="#000000"></path>
            <path d="M678,79.6 C682.8104,79.6 686.71,83.4995998 686.71,88.31 C686.71,93.1204002 682.8104,97.02 678,97.02 C673.1896,97.02 669.29,93.1204002 669.29,88.31 C669.273886,85.9950621 670.186369,83.7702647 671.823317,82.1333168 C673.460265,80.4963688 675.685062,79.5838862 678,79.6 Z" id="Path" fill="#000000"></path>
            <path d="M698.58,80.23 C704.06,84.46 710.03,86.7 715.88,86.7 C720.98,86.7 726.08,83.96 726.08,79.35 C726.08,72.64 716.37,72.26 707.79,69.4 C700.7,67.04 694.35,62.56 694.35,54.35 C694.35,41.78 705.55,36.06 716,36.06 C724.58,36.06 730.81,38.79 735.41,42.53 L729.31,51 C725.749056,48.1153852 721.331541,46.4939883 716.75,46.39 C711.02,46.39 706.17,49.13 706.17,53.73 C706.17,57.73 710.77,59.08 716.62,60.58 C725.83,62.94 737.9,67.05 737.9,79.12 C737.9,90.19 727.57,97.03 716.12,97.03 C707.5383,97.1988691 699.171602,94.3379753 692.49,88.95 L698.58,80.23 Z" id="Path" fill="#000000"></path>
            <path d="M752,69.34 C752.630515,79.3102228 760.930023,87.0570156 770.92,87 C779.62,87 784.35,82.77 787.71,79 L795.43,86.34 C791.07,91.94 782.74,97.34 770.79,97.34 C753.79,97.34 740.56,84.4 740.56,66.86 C740.56,49.32 752.5,36.37 769.05,36.37 C785.35,36.37 797.17,49.56 797.17,66.86 C797.176923,67.6885364 797.133509,68.5167282 797.04,69.34 L752,69.34 Z M753,59.34 L784.85,59.34 C783.11,51.88 776.39,46.65 769.42,46.65 C761.685874,46.6671083 754.938067,51.9026181 753,59.39 L753,59.34 Z" id="Shape" fill="#000000"></path>
            <path d="M166.59,36.09 C159.974012,36.0061296 153.510953,38.0809086 148.18,42 L148.18,7.44 L136.36,7.44 L136.36,95.78 L147.8,95.78 L147.61,90.67 C153.036823,94.890429 159.735738,97.1433796 166.61,97.06 C183.91,97.06 196.85,83.99 196.85,66.57 C196.85,49.15 183.89,36.09 166.59,36.09 Z M166.59,47.29 C177.42,47.29 185.01,55.87 185.01,66.57 C185.01,77.27 177.42,85.86 166.59,85.86 C155.76,85.86 148.18,77.28 148.18,66.59 L148.18,66.59 C148.18,55.87 155.77,47.29 166.59,47.29 Z" id="Shape" fill="#000000"></path>
            <path d="M434.6,7.44 L434.6,42 C429.272796,38.0702239 422.80941,35.9848075 416.19,36.06 C398.9,36.09 386,49.16 386,66.57 C386,83.98 398.94,97.06 416.23,97.06 C423.058485,97.1392532 429.714024,94.9125193 435.12,90.74 L435.02,95.74 L446.46,95.74 L446.46,7.44 L434.6,7.44 Z M416.19,85.86 C405.37,85.86 397.78,77.27 397.78,66.57 C397.78,55.87 405.37,47.29 416.19,47.29 C427.01,47.29 434.6,55.87 434.6,66.57 C434.6,77.27 427,85.86 416.19,85.86 Z" id="Shape" fill="#000000"></path>
            <path d="M91.58,50.34 C85.6079438,44.365802 77.600989,40.8658842 69.16,40.54 L52,40.51 L52,67 L62.89,78 L62.89,51.45 L68.16,51.45 C78.3745594,51.5899048 87.2313454,58.5500453 89.7822634,68.4419416 C92.3331815,78.333838 87.9468442,88.7091095 79.0738032,93.7713166 C70.2007623,98.8335237 59.0372176,97.3297003 51.82,90.1 L16,54.23 L51.82,18.36 C58.5290289,11.656061 68.7044601,9.84204723 77.3168255,13.8145817 C85.9291909,17.7871161 91.1544962,26.7048642 90.41,36.16 L90.41,36.29 L100,44 L100.11,43.63 C104.329148,28.9212716 98.0677092,13.2206445 84.8845407,5.45199157 C71.7013721,-2.31666133 54.9329265,-0.187216053 44.11,10.63 L0.49,54.23 L44.09,97.83 C57.2040015,110.944001 78.4659983,110.944001 91.5799995,97.8299995 C104.694001,84.7159983 104.694001,63.4540015 91.58,50.34 L91.58,50.34 Z" id="Path" fill="#23A994"></path>
            <path d="M461.81,13.6799418 C459.749598,13.6743313 457.773559,14.4978732 456.327012,15.965112 C454.880465,17.4323508 454.08507,19.4198865 454.12,21.48 C454.087247,23.5293801 454.88692,25.5044493 456.336235,26.9537649 C457.785551,28.4030805 459.76062,29.2027527 461.81,29.17 C463.870114,29.20493 465.857649,28.4095348 467.324888,26.9629878 C468.792127,25.5164409 469.615669,23.5404018 469.610058,21.48 C469.618012,19.4088655 468.798802,17.4202464 467.334278,15.9557222 C465.869754,14.491198 463.881134,13.6719878 461.81,13.6799418 L461.81,13.6799418 Z" id="Path" fill="#000000"></path>
        </g>
    </g>
</svg>